<svg width="16" height="4" viewBox="0 0 16 4" fill="none" xmlns="http://www.w3.org/2000/svg">
<path d="M7.99998 2.83332C8.46022 2.83332 8.83331 2.46023 8.83331 1.99999C8.83331 1.53975 8.46022 1.16666 7.99998 1.16666C7.53974 1.16666 7.16665 1.53975 7.16665 1.99999C7.16665 2.46023 7.53974 2.83332 7.99998 2.83332Z" stroke="#98A2B3" stroke-width="1.66667" stroke-linecap="round" stroke-linejoin="round"/>
<path d="M13.8333 2.83332C14.2935 2.83332 14.6666 2.46023 14.6666 1.99999C14.6666 1.53975 14.2935 1.16666 13.8333 1.16666C13.3731 1.16666 13 1.53975 13 1.99999C13 2.46023 13.3731 2.83332 13.8333 2.83332Z" stroke="#98A2B3" stroke-width="1.66667" stroke-linecap="round" stroke-linejoin="round"/>
<path d="M2.16665 2.83332C2.62688 2.83332 2.99998 2.46023 2.99998 1.99999C2.99998 1.53975 2.62688 1.16666 2.16665 1.16666C1.70641 1.16666 1.33331 1.53975 1.33331 1.99999C1.33331 2.46023 1.70641 2.83332 2.16665 2.83332Z" stroke="#98A2B3" stroke-width="1.66667" stroke-linecap="round" stroke-linejoin="round"/>
</svg>
