<svg width="20" height="20" viewBox="0 0 20 20" fill="none" xmlns="http://www.w3.org/2000/svg">
<path d="M17.8752 9.2498C18.9106 9.2498 19.75 8.41041 19.75 7.37496C19.75 6.33952 18.9105 5.50012 17.8751 5.50012C16.8395 5.50012 16 6.33959 16 7.37512V9.2498H17.8752ZM12.625 9.2498C13.6605 9.2498 14.5 8.41033 14.5 7.3748V2.12512C14.5 1.08959 13.6605 0.250122 12.625 0.250122C11.5895 0.250122 10.75 1.08959 10.75 2.12512V7.3748C10.75 8.41033 11.5895 9.2498 12.625 9.2498Z" fill="#2EB67D"/>
<path d="M2.12484 10.7502C1.08939 10.7502 0.250001 11.5896 0.250001 12.625C0.250001 13.6605 1.08947 14.4999 2.12492 14.4999C3.16045 14.4999 4 13.6604 4 12.6249V10.7502H2.12484ZM7.375 10.7502C6.33947 10.7502 5.5 11.5897 5.5 12.6252V17.8749C5.5 18.9104 6.33947 19.7499 7.375 19.7499C8.41053 19.7499 9.25 18.9104 9.25 17.8749V12.6252C9.25 11.5897 8.41053 10.7502 7.375 10.7502Z" fill="#E01E5A"/>
<path d="M10.7501 17.8752C10.7501 18.9106 11.5895 19.75 12.625 19.75C13.6604 19.75 14.4998 18.9105 14.4998 17.8751C14.4998 16.8395 13.6603 16 12.6248 16L10.7501 16L10.7501 17.8752ZM10.7501 12.625C10.7501 13.6605 11.5896 14.5 12.6251 14.5L17.8748 14.5C18.9103 14.5 19.7498 13.6605 19.7498 12.625C19.7498 11.5895 18.9104 10.75 17.8748 10.75L12.6251 10.75C11.5896 10.75 10.7501 11.5895 10.7501 12.625Z" fill="#ECB22E"/>
<path d="M9.2498 2.12484C9.2498 1.08939 8.41041 0.25 7.37496 0.25C6.33952 0.25 5.50012 1.08947 5.50012 2.12492C5.50012 3.16045 6.33959 4 7.37512 4L9.2498 4L9.2498 2.12484ZM9.2498 7.375C9.2498 6.33947 8.41033 5.5 7.3748 5.5L2.12512 5.5C1.08959 5.5 0.250122 6.33947 0.250122 7.375C0.250122 8.41053 1.08959 9.25 2.12512 9.25L7.3748 9.25C8.41033 9.25 9.2498 8.41053 9.2498 7.375Z" fill="#36C5F0"/>
</svg>
